<?xml version="1.0" encoding="utf-8" standalone="no"?>
<!DOCTYPE svg PUBLIC "-//W3C//DTD SVG 1.1//EN"
  "http://www.w3.org/Graphics/SVG/1.1/DTD/svg11.dtd">
<!-- Created with matplotlib (https://matplotlib.org/) -->
<svg height="345.6pt" version="1.1" viewBox="0 0 460.8 345.6" width="460.8pt" xmlns="http://www.w3.org/2000/svg" xmlns:xlink="http://www.w3.org/1999/xlink">
 <defs>
  <style type="text/css">
*{stroke-linecap:butt;stroke-linejoin:round;}
  </style>
 </defs>
 <g id="figure_1">
  <g id="patch_1">
   <path d="M 0 345.6 
L 460.8 345.6 
L 460.8 0 
L 0 0 
z
" style="fill:#ffffff;"/>
  </g>
  <g id="axes_1">
   <g id="patch_2">
    <path d="M 114.738942 307.584 
L 357.581058 307.584 
L 357.581058 41.472 
L 114.738942 41.472 
z
" style="fill:#ffffff;"/>
   </g>
   <g id="PatchCollection_1">
    <path clip-path="url(#p9c4878ba0e)" d="M 131.743857 269.451767 
L 131.743857 79.604233 
L 321.59139 79.604233 
L 321.59139 269.451767 
z
" style="fill:#1f77b4;fill-opacity:0.4;"/>
    <path clip-path="url(#p9c4878ba0e)" d="M 257.856861 248.839749 
C 268.861529 248.839749 279.416956 244.467548 287.198431 236.686073 
C 294.979907 228.904597 299.352108 218.34917 299.352108 207.344502 
C 299.352108 196.339834 294.979907 185.784407 287.198431 178.002932 
C 279.416956 170.221457 268.861529 165.849256 257.856861 165.849256 
C 246.852193 165.849256 236.296766 170.221457 228.515291 178.002932 
C 220.733815 185.784407 216.361614 196.339834 216.361614 207.344502 
C 216.361614 218.34917 220.733815 228.904597 228.515291 236.686073 
C 236.296766 244.467548 246.852193 248.839749 257.856861 248.839749 
z
" style="fill:#1f77b4;fill-opacity:0.4;"/>
    <path clip-path="url(#p9c4878ba0e)" d="M 183.002691 136.558493 
C 194.007359 136.558493 204.562785 132.186292 212.344261 124.404817 
C 220.125736 116.623342 224.497937 106.067915 224.497937 95.063247 
C 224.497937 84.058579 220.125736 73.503152 212.344261 65.721676 
C 204.562785 57.940201 194.007359 53.568 183.002691 53.568 
C 171.998023 53.568 161.442596 57.940201 153.66112 65.721676 
C 145.879645 73.503152 141.507444 84.058579 141.507444 95.063247 
C 141.507444 106.067915 145.879645 116.623342 153.66112 124.404817 
C 161.442596 132.186292 171.998023 136.558493 183.002691 136.558493 
z
" style="fill:#1f77b4;fill-opacity:0.4;"/>
    <path clip-path="url(#p9c4878ba0e)" d="M 167.272466 295.488 
C 178.277134 295.488 188.832561 291.115799 196.614037 283.334324 
C 204.395512 275.552848 208.767713 264.997421 208.767713 253.992753 
C 208.767713 242.988085 204.395512 232.432658 196.614037 224.651183 
C 188.832561 216.869708 178.277134 212.497507 167.272466 212.497507 
C 156.267798 212.497507 145.712371 216.869708 137.930896 224.651183 
C 130.149421 232.432658 125.77722 242.988085 125.77722 253.992753 
C 125.77722 264.997421 130.149421 275.552848 137.930896 283.334324 
C 145.712371 291.115799 156.267798 295.488 167.272466 295.488 
z
" style="fill:#1f77b4;fill-opacity:0.4;"/>
    <path clip-path="url(#p9c4878ba0e)" d="M 305.047534 176.697686 
C 316.052202 176.697686 326.607629 172.325485 334.389104 164.54401 
C 342.170579 156.762534 346.54278 146.207108 346.54278 135.202439 
C 346.54278 124.197771 342.170579 113.642345 334.389104 105.860869 
C 326.607629 98.079394 316.052202 93.707193 305.047534 93.707193 
C 294.042866 93.707193 283.487439 98.079394 275.705963 105.860869 
C 267.924488 113.642345 263.552287 124.197771 263.552287 135.202439 
C 263.552287 146.207108 267.924488 156.762534 275.705963 164.54401 
C 283.487439 172.325485 294.042866 176.697686 305.047534 176.697686 
z
" style="fill:#1f77b4;fill-opacity:0.4;"/>
    <path clip-path="url(#p9c4878ba0e)" d="M 236.702422 285.453202 
C 247.70709 285.453202 258.262516 281.081001 266.043992 273.299525 
C 273.825467 265.51805 278.197668 254.962623 278.197668 243.957955 
C 278.197668 232.953287 273.825467 222.39786 266.043992 214.616385 
C 258.262516 206.834909 247.70709 202.462709 236.702422 202.462709 
C 225.697753 202.462709 215.142327 206.834909 207.360851 214.616385 
C 199.579376 222.39786 195.207175 232.953287 195.207175 243.957955 
C 195.207175 254.962623 199.579376 265.51805 207.360851 273.299525 
C 215.142327 281.081001 225.697753 285.453202 236.702422 285.453202 
z
" style="fill:#1f77b4;fill-opacity:0.4;"/>
    <path clip-path="url(#p9c4878ba0e)" d="M 173.239103 209.242978 
C 184.243771 209.242978 194.799198 204.870777 202.580673 197.089301 
C 210.362149 189.307826 214.73435 178.752399 214.73435 167.747731 
C 214.73435 156.743063 210.362149 146.187636 202.580673 138.406161 
C 194.799198 130.624685 184.243771 126.252484 173.239103 126.252484 
C 162.234435 126.252484 151.679008 130.624685 143.897533 138.406161 
C 136.116057 146.187636 131.743857 156.743063 131.743857 167.747731 
C 131.743857 178.752399 136.116057 189.307826 143.897533 197.089301 
C 151.679008 204.870777 162.234435 209.242978 173.239103 209.242978 
z
" style="fill:#1f77b4;fill-opacity:0.4;"/>
    <path clip-path="url(#p9c4878ba0e)" d="M 300.16574 137.372126 
C 311.170408 137.372126 321.725835 132.999925 329.50731 125.218449 
C 337.288786 117.436974 341.660987 106.881547 341.660987 95.876879 
C 341.660987 84.872211 337.288786 74.316784 329.50731 66.535309 
C 321.725835 58.753833 311.170408 54.381632 300.16574 54.381632 
C 289.161072 54.381632 278.605645 58.753833 270.82417 66.535309 
C 263.042694 74.316784 258.670493 84.872211 258.670493 95.876879 
C 258.670493 106.881547 263.042694 117.436974 270.82417 125.218449 
C 278.605645 132.999925 289.161072 137.372126 300.16574 137.372126 
z
" style="fill:#1f77b4;fill-opacity:0.4;"/>
   </g>
   <g id="PathCollection_1">
    <defs>
     <path d="M 0 3 
C 0.795609 3 1.55874 2.683901 2.12132 2.12132 
C 2.683901 1.55874 3 0.795609 3 0 
C 3 -0.795609 2.683901 -1.55874 2.12132 -2.12132 
C 1.55874 -2.683901 0.795609 -3 0 -3 
C -0.795609 -3 -1.55874 -2.683901 -2.12132 -2.12132 
C -2.683901 -1.55874 -3 -0.795609 -3 0 
C -3 0.795609 -2.683901 1.55874 -2.12132 2.12132 
C -1.55874 2.683901 -0.795609 3 0 3 
z
" id="m0370662c21" style="stroke:#0000ff;"/>
    </defs>
    <g clip-path="url(#p9c4878ba0e)">
     <use style="fill:#0000ff;stroke:#0000ff;" x="257.856861" xlink:href="#m0370662c21" y="207.344502"/>
    </g>
   </g>
   <g id="PathCollection_2">
    <g clip-path="url(#p9c4878ba0e)">
     <use style="fill:#0000ff;stroke:#0000ff;" x="183.002691" xlink:href="#m0370662c21" y="95.063247"/>
    </g>
   </g>
   <g id="PathCollection_3">
    <g clip-path="url(#p9c4878ba0e)">
     <use style="fill:#0000ff;stroke:#0000ff;" x="167.272466" xlink:href="#m0370662c21" y="253.992753"/>
    </g>
   </g>
   <g id="PathCollection_4">
    <g clip-path="url(#p9c4878ba0e)">
     <use style="fill:#0000ff;stroke:#0000ff;" x="305.047534" xlink:href="#m0370662c21" y="135.202439"/>
    </g>
   </g>
   <g id="PathCollection_5">
    <g clip-path="url(#p9c4878ba0e)">
     <use style="fill:#0000ff;stroke:#0000ff;" x="236.702422" xlink:href="#m0370662c21" y="243.957955"/>
    </g>
   </g>
   <g id="PathCollection_6">
    <g clip-path="url(#p9c4878ba0e)">
     <use style="fill:#0000ff;stroke:#0000ff;" x="173.239103" xlink:href="#m0370662c21" y="167.747731"/>
    </g>
   </g>
   <g id="PathCollection_7">
    <g clip-path="url(#p9c4878ba0e)">
     <use style="fill:#0000ff;stroke:#0000ff;" x="300.16574" xlink:href="#m0370662c21" y="95.876879"/>
    </g>
   </g>
   <g id="PathCollection_8">
    <defs>
     <path d="M 0 3 
C 0.795609 3 1.55874 2.683901 2.12132 2.12132 
C 2.683901 1.55874 3 0.795609 3 0 
C 3 -0.795609 2.683901 -1.55874 2.12132 -2.12132 
C 1.55874 -2.683901 0.795609 -3 0 -3 
C -0.795609 -3 -1.55874 -2.683901 -2.12132 -2.12132 
C -2.683901 -1.55874 -3 -0.795609 -3 0 
C -3 0.795609 -2.683901 1.55874 -2.12132 2.12132 
C -1.55874 2.683901 -0.795609 3 0 3 
z
" id="m6d995f86ca" style="stroke:#008000;"/>
    </defs>
    <g clip-path="url(#p9c4878ba0e)">
     <use style="fill:#008000;stroke:#008000;" x="158.864933" xlink:href="#m6d995f86ca" y="269.451767"/>
    </g>
   </g>
   <g id="PathCollection_9">
    <defs>
     <path d="M 0 3 
C 0.795609 3 1.55874 2.683901 2.12132 2.12132 
C 2.683901 1.55874 3 0.795609 3 0 
C 3 -0.795609 2.683901 -1.55874 2.12132 -2.12132 
C 1.55874 -2.683901 0.795609 -3 0 -3 
C -0.795609 -3 -1.55874 -2.683901 -2.12132 -2.12132 
C -2.683901 -1.55874 -3 -0.795609 -3 0 
C -3 0.795609 -2.683901 1.55874 -2.12132 2.12132 
C -1.55874 2.683901 -0.795609 3 0 3 
z
" id="mf183161504" style="stroke:#bfbf00;"/>
    </defs>
    <g clip-path="url(#p9c4878ba0e)">
     <use style="fill:#bfbf00;stroke:#bfbf00;" x="172.425471" xlink:href="#mf183161504" y="228.770152"/>
    </g>
   </g>
   <g id="PathCollection_10">
    <g clip-path="url(#p9c4878ba0e)">
     <use style="fill:#bfbf00;stroke:#bfbf00;" x="213.107085" xlink:href="#mf183161504" y="215.209614"/>
    </g>
   </g>
   <g id="PathCollection_11">
    <g clip-path="url(#p9c4878ba0e)">
     <use style="fill:#bfbf00;stroke:#bfbf00;" x="158.864933" xlink:href="#mf183161504" y="160.967462"/>
    </g>
   </g>
   <g id="PathCollection_12">
    <g clip-path="url(#p9c4878ba0e)">
     <use style="fill:#bfbf00;stroke:#bfbf00;" x="213.107085" xlink:href="#mf183161504" y="160.967462"/>
    </g>
   </g>
   <g id="PathCollection_13">
    <g clip-path="url(#p9c4878ba0e)">
     <use style="fill:#008000;stroke:#008000;" x="158.864933" xlink:href="#m6d995f86ca" y="133.846386"/>
    </g>
   </g>
   <g id="PathCollection_14">
    <g clip-path="url(#p9c4878ba0e)">
     <use style="fill:#bfbf00;stroke:#bfbf00;" x="185.986009" xlink:href="#mf183161504" y="79.604233"/>
    </g>
   </g>
   <g id="PathCollection_15">
    <defs>
     <path d="M 0 3 
C 0.795609 3 1.55874 2.683901 2.12132 2.12132 
C 2.683901 1.55874 3 0.795609 3 0 
C 3 -0.795609 2.683901 -1.55874 2.12132 -2.12132 
C 1.55874 -2.683901 0.795609 -3 0 -3 
C -0.795609 -3 -1.55874 -2.683901 -2.12132 -2.12132 
C -2.683901 -1.55874 -3 -0.795609 -3 0 
C -3 0.795609 -2.683901 1.55874 -2.12132 2.12132 
C -1.55874 2.683901 -0.795609 3 0 3 
z
" id="m740079a236" style="stroke:#ff0000;"/>
    </defs>
    <g clip-path="url(#p9c4878ba0e)">
     <use style="fill:#ff0000;stroke:#ff0000;" x="267.349238" xlink:href="#m740079a236" y="242.330691"/>
    </g>
   </g>
   <g id="PathCollection_16">
    <g clip-path="url(#p9c4878ba0e)">
     <use style="fill:#008000;stroke:#008000;" x="294.470314" xlink:href="#m6d995f86ca" y="215.209614"/>
    </g>
   </g>
   <g id="PathCollection_17">
    <g clip-path="url(#p9c4878ba0e)">
     <use style="fill:#bfbf00;stroke:#bfbf00;" x="267.349238" xlink:href="#mf183161504" y="215.209614"/>
    </g>
   </g>
   <g id="PathCollection_18">
    <g clip-path="url(#p9c4878ba0e)">
     <use style="fill:#bfbf00;stroke:#bfbf00;" x="240.228161" xlink:href="#mf183161504" y="188.088538"/>
    </g>
   </g>
   <g id="PathCollection_19">
    <g clip-path="url(#p9c4878ba0e)">
     <use style="fill:#bfbf00;stroke:#bfbf00;" x="321.59139" xlink:href="#mf183161504" y="160.967462"/>
    </g>
   </g>
   <g id="PathCollection_20">
    <g clip-path="url(#p9c4878ba0e)">
     <use style="fill:#008000;stroke:#008000;" x="267.349238" xlink:href="#m6d995f86ca" y="133.846386"/>
    </g>
   </g>
   <g id="PathCollection_21">
    <g clip-path="url(#p9c4878ba0e)">
     <use style="fill:#bfbf00;stroke:#bfbf00;" x="321.59139" xlink:href="#mf183161504" y="79.604233"/>
    </g>
   </g>
   <g id="PathCollection_22">
    <g clip-path="url(#p9c4878ba0e)">
     <use style="fill:#ff0000;stroke:#ff0000;" x="185.986009" xlink:href="#m740079a236" y="106.725309"/>
    </g>
   </g>
   <g id="PathCollection_23">
    <g clip-path="url(#p9c4878ba0e)">
     <use style="fill:#ff0000;stroke:#ff0000;" x="294.470314" xlink:href="#m740079a236" y="188.088538"/>
    </g>
   </g>
   <g id="PathCollection_24">
    <g clip-path="url(#p9c4878ba0e)">
     <use style="fill:#ff0000;stroke:#ff0000;" x="240.228161" xlink:href="#m740079a236" y="269.451767"/>
    </g>
   </g>
   <g id="PathCollection_25">
    <g clip-path="url(#p9c4878ba0e)">
     <use style="fill:#008000;stroke:#008000;" x="294.470314" xlink:href="#m6d995f86ca" y="106.725309"/>
    </g>
   </g>
   <g id="PathCollection_26">
    <g clip-path="url(#p9c4878ba0e)">
     <use style="fill:#008000;stroke:#008000;" x="185.986009" xlink:href="#m6d995f86ca" y="201.649076"/>
    </g>
   </g>
   <g id="PathCollection_27">
    <g clip-path="url(#p9c4878ba0e)">
     <use style="fill:#ff0000;stroke:#ff0000;" x="131.743857" xlink:href="#m740079a236" y="269.451767"/>
    </g>
   </g>
   <g id="PathCollection_28">
    <g clip-path="url(#p9c4878ba0e)">
     <use style="fill:#008000;stroke:#008000;" x="267.349238" xlink:href="#m6d995f86ca" y="269.451767"/>
    </g>
   </g>
   <g id="matplotlib.axis_1">
    <g id="xtick_1">
     <g id="line2d_1">
      <defs>
       <path d="M 0 0 
L 0 3.5 
" id="mf425305d7e" style="stroke:#000000;stroke-width:0.8;"/>
      </defs>
      <g>
       <use style="stroke:#000000;stroke-width:0.8;" x="158.864933" xlink:href="#mf425305d7e" y="307.584"/>
      </g>
     </g>
     <g id="text_1">
      <!-- 200 -->
      <defs>
       <path d="M 19.1875 8.296875 
L 53.609375 8.296875 
L 53.609375 0 
L 7.328125 0 
L 7.328125 8.296875 
Q 12.9375 14.109375 22.625 23.890625 
Q 32.328125 33.6875 34.8125 36.53125 
Q 39.546875 41.84375 41.421875 45.53125 
Q 43.3125 49.21875 43.3125 52.78125 
Q 43.3125 58.59375 39.234375 62.25 
Q 35.15625 65.921875 28.609375 65.921875 
Q 23.96875 65.921875 18.8125 64.3125 
Q 13.671875 62.703125 7.8125 59.421875 
L 7.8125 69.390625 
Q 13.765625 71.78125 18.9375 73 
Q 24.125 74.21875 28.421875 74.21875 
Q 39.75 74.21875 46.484375 68.546875 
Q 53.21875 62.890625 53.21875 53.421875 
Q 53.21875 48.921875 51.53125 44.890625 
Q 49.859375 40.875 45.40625 35.40625 
Q 44.1875 33.984375 37.640625 27.21875 
Q 31.109375 20.453125 19.1875 8.296875 
z
" id="DejaVuSans-50"/>
       <path d="M 31.78125 66.40625 
Q 24.171875 66.40625 20.328125 58.90625 
Q 16.5 51.421875 16.5 36.375 
Q 16.5 21.390625 20.328125 13.890625 
Q 24.171875 6.390625 31.78125 6.390625 
Q 39.453125 6.390625 43.28125 13.890625 
Q 47.125 21.390625 47.125 36.375 
Q 47.125 51.421875 43.28125 58.90625 
Q 39.453125 66.40625 31.78125 66.40625 
z
M 31.78125 74.21875 
Q 44.046875 74.21875 50.515625 64.515625 
Q 56.984375 54.828125 56.984375 36.375 
Q 56.984375 17.96875 50.515625 8.265625 
Q 44.046875 -1.421875 31.78125 -1.421875 
Q 19.53125 -1.421875 13.0625 8.265625 
Q 6.59375 17.96875 6.59375 36.375 
Q 6.59375 54.828125 13.0625 64.515625 
Q 19.53125 74.21875 31.78125 74.21875 
z
" id="DejaVuSans-48"/>
      </defs>
      <g transform="translate(149.321183 322.182437)scale(0.1 -0.1)">
       <use xlink:href="#DejaVuSans-50"/>
       <use x="63.623047" xlink:href="#DejaVuSans-48"/>
       <use x="127.246094" xlink:href="#DejaVuSans-48"/>
      </g>
     </g>
    </g>
    <g id="xtick_2">
     <g id="line2d_2">
      <g>
       <use style="stroke:#000000;stroke-width:0.8;" x="213.107085" xlink:href="#mf425305d7e" y="307.584"/>
      </g>
     </g>
     <g id="text_2">
      <!-- 400 -->
      <defs>
       <path d="M 37.796875 64.3125 
L 12.890625 25.390625 
L 37.796875 25.390625 
z
M 35.203125 72.90625 
L 47.609375 72.90625 
L 47.609375 25.390625 
L 58.015625 25.390625 
L 58.015625 17.1875 
L 47.609375 17.1875 
L 47.609375 0 
L 37.796875 0 
L 37.796875 17.1875 
L 4.890625 17.1875 
L 4.890625 26.703125 
z
" id="DejaVuSans-52"/>
      </defs>
      <g transform="translate(203.563335 322.182437)scale(0.1 -0.1)">
       <use xlink:href="#DejaVuSans-52"/>
       <use x="63.623047" xlink:href="#DejaVuSans-48"/>
       <use x="127.246094" xlink:href="#DejaVuSans-48"/>
      </g>
     </g>
    </g>
    <g id="xtick_3">
     <g id="line2d_3">
      <g>
       <use style="stroke:#000000;stroke-width:0.8;" x="267.349238" xlink:href="#mf425305d7e" y="307.584"/>
      </g>
     </g>
     <g id="text_3">
      <!-- 600 -->
      <defs>
       <path d="M 33.015625 40.375 
Q 26.375 40.375 22.484375 35.828125 
Q 18.609375 31.296875 18.609375 23.390625 
Q 18.609375 15.53125 22.484375 10.953125 
Q 26.375 6.390625 33.015625 6.390625 
Q 39.65625 6.390625 43.53125 10.953125 
Q 47.40625 15.53125 47.40625 23.390625 
Q 47.40625 31.296875 43.53125 35.828125 
Q 39.65625 40.375 33.015625 40.375 
z
M 52.59375 71.296875 
L 52.59375 62.3125 
Q 48.875 64.0625 45.09375 64.984375 
Q 41.3125 65.921875 37.59375 65.921875 
Q 27.828125 65.921875 22.671875 59.328125 
Q 17.53125 52.734375 16.796875 39.40625 
Q 19.671875 43.65625 24.015625 45.921875 
Q 28.375 48.1875 33.59375 48.1875 
Q 44.578125 48.1875 50.953125 41.515625 
Q 57.328125 34.859375 57.328125 23.390625 
Q 57.328125 12.15625 50.6875 5.359375 
Q 44.046875 -1.421875 33.015625 -1.421875 
Q 20.359375 -1.421875 13.671875 8.265625 
Q 6.984375 17.96875 6.984375 36.375 
Q 6.984375 53.65625 15.1875 63.9375 
Q 23.390625 74.21875 37.203125 74.21875 
Q 40.921875 74.21875 44.703125 73.484375 
Q 48.484375 72.75 52.59375 71.296875 
z
" id="DejaVuSans-54"/>
      </defs>
      <g transform="translate(257.805488 322.182437)scale(0.1 -0.1)">
       <use xlink:href="#DejaVuSans-54"/>
       <use x="63.623047" xlink:href="#DejaVuSans-48"/>
       <use x="127.246094" xlink:href="#DejaVuSans-48"/>
      </g>
     </g>
    </g>
    <g id="xtick_4">
     <g id="line2d_4">
      <g>
       <use style="stroke:#000000;stroke-width:0.8;" x="321.59139" xlink:href="#mf425305d7e" y="307.584"/>
      </g>
     </g>
     <g id="text_4">
      <!-- 800 -->
      <defs>
       <path d="M 31.78125 34.625 
Q 24.75 34.625 20.71875 30.859375 
Q 16.703125 27.09375 16.703125 20.515625 
Q 16.703125 13.921875 20.71875 10.15625 
Q 24.75 6.390625 31.78125 6.390625 
Q 38.8125 6.390625 42.859375 10.171875 
Q 46.921875 13.96875 46.921875 20.515625 
Q 46.921875 27.09375 42.890625 30.859375 
Q 38.875 34.625 31.78125 34.625 
z
M 21.921875 38.8125 
Q 15.578125 40.375 12.03125 44.71875 
Q 8.5 49.078125 8.5 55.328125 
Q 8.5 64.0625 14.71875 69.140625 
Q 20.953125 74.21875 31.78125 74.21875 
Q 42.671875 74.21875 48.875 69.140625 
Q 55.078125 64.0625 55.078125 55.328125 
Q 55.078125 49.078125 51.53125 44.71875 
Q 48 40.375 41.703125 38.8125 
Q 48.828125 37.15625 52.796875 32.3125 
Q 56.78125 27.484375 56.78125 20.515625 
Q 56.78125 9.90625 50.3125 4.234375 
Q 43.84375 -1.421875 31.78125 -1.421875 
Q 19.734375 -1.421875 13.25 4.234375 
Q 6.78125 9.90625 6.78125 20.515625 
Q 6.78125 27.484375 10.78125 32.3125 
Q 14.796875 37.15625 21.921875 38.8125 
z
M 18.3125 54.390625 
Q 18.3125 48.734375 21.84375 45.5625 
Q 25.390625 42.390625 31.78125 42.390625 
Q 38.140625 42.390625 41.71875 45.5625 
Q 45.3125 48.734375 45.3125 54.390625 
Q 45.3125 60.0625 41.71875 63.234375 
Q 38.140625 66.40625 31.78125 66.40625 
Q 25.390625 66.40625 21.84375 63.234375 
Q 18.3125 60.0625 18.3125 54.390625 
z
" id="DejaVuSans-56"/>
      </defs>
      <g transform="translate(312.04764 322.182437)scale(0.1 -0.1)">
       <use xlink:href="#DejaVuSans-56"/>
       <use x="63.623047" xlink:href="#DejaVuSans-48"/>
       <use x="127.246094" xlink:href="#DejaVuSans-48"/>
      </g>
     </g>
    </g>
   </g>
   <g id="matplotlib.axis_2">
    <g id="ytick_1">
     <g id="line2d_5">
      <defs>
       <path d="M 0 0 
L -3.5 0 
" id="m4487645501" style="stroke:#000000;stroke-width:0.8;"/>
      </defs>
      <g>
       <use style="stroke:#000000;stroke-width:0.8;" x="114.738942" xlink:href="#m4487645501" y="296.572843"/>
      </g>
     </g>
     <g id="text_5">
      <!-- 0 -->
      <g transform="translate(101.376442 300.372062)scale(0.1 -0.1)">
       <use xlink:href="#DejaVuSans-48"/>
      </g>
     </g>
    </g>
    <g id="ytick_2">
     <g id="line2d_6">
      <g>
       <use style="stroke:#000000;stroke-width:0.8;" x="114.738942" xlink:href="#m4487645501" y="242.330691"/>
      </g>
     </g>
     <g id="text_6">
      <!-- 200 -->
      <g transform="translate(88.651442 246.129909)scale(0.1 -0.1)">
       <use xlink:href="#DejaVuSans-50"/>
       <use x="63.623047" xlink:href="#DejaVuSans-48"/>
       <use x="127.246094" xlink:href="#DejaVuSans-48"/>
      </g>
     </g>
    </g>
    <g id="ytick_3">
     <g id="line2d_7">
      <g>
       <use style="stroke:#000000;stroke-width:0.8;" x="114.738942" xlink:href="#m4487645501" y="188.088538"/>
      </g>
     </g>
     <g id="text_7">
      <!-- 400 -->
      <g transform="translate(88.651442 191.887757)scale(0.1 -0.1)">
       <use xlink:href="#DejaVuSans-52"/>
       <use x="63.623047" xlink:href="#DejaVuSans-48"/>
       <use x="127.246094" xlink:href="#DejaVuSans-48"/>
      </g>
     </g>
    </g>
    <g id="ytick_4">
     <g id="line2d_8">
      <g>
       <use style="stroke:#000000;stroke-width:0.8;" x="114.738942" xlink:href="#m4487645501" y="133.846386"/>
      </g>
     </g>
     <g id="text_8">
      <!-- 600 -->
      <g transform="translate(88.651442 137.645604)scale(0.1 -0.1)">
       <use xlink:href="#DejaVuSans-54"/>
       <use x="63.623047" xlink:href="#DejaVuSans-48"/>
       <use x="127.246094" xlink:href="#DejaVuSans-48"/>
      </g>
     </g>
    </g>
    <g id="ytick_5">
     <g id="line2d_9">
      <g>
       <use style="stroke:#000000;stroke-width:0.8;" x="114.738942" xlink:href="#m4487645501" y="79.604233"/>
      </g>
     </g>
     <g id="text_9">
      <!-- 800 -->
      <g transform="translate(88.651442 83.403452)scale(0.1 -0.1)">
       <use xlink:href="#DejaVuSans-56"/>
       <use x="63.623047" xlink:href="#DejaVuSans-48"/>
       <use x="127.246094" xlink:href="#DejaVuSans-48"/>
      </g>
     </g>
    </g>
   </g>
   <g id="patch_3">
    <path d="M 114.738942 307.584 
L 114.738942 41.472 
" style="fill:none;stroke:#000000;stroke-linecap:square;stroke-linejoin:miter;stroke-width:0.8;"/>
   </g>
   <g id="patch_4">
    <path d="M 357.581058 307.584 
L 357.581058 41.472 
" style="fill:none;stroke:#000000;stroke-linecap:square;stroke-linejoin:miter;stroke-width:0.8;"/>
   </g>
   <g id="patch_5">
    <path d="M 114.738942 307.584 
L 357.581058 307.584 
" style="fill:none;stroke:#000000;stroke-linecap:square;stroke-linejoin:miter;stroke-width:0.8;"/>
   </g>
   <g id="patch_6">
    <path d="M 114.738942 41.472 
L 357.581058 41.472 
" style="fill:none;stroke:#000000;stroke-linecap:square;stroke-linejoin:miter;stroke-width:0.8;"/>
   </g>
  </g>
 </g>
 <defs>
  <clipPath id="p9c4878ba0e">
   <rect height="266.112" width="242.842117" x="114.738942" y="41.472"/>
  </clipPath>
 </defs>
</svg>
